<svg xmlns="http://www.w3.org/2000/svg" viewBox="0 0 4608 3072"><title>rooms Floor 1 vector preview</title><metadata>Source annotations; not production artwork.</metadata><g transform="translate(0 3072) scale(1 -1)"><polyline id="rooms-001" data-object-id="11" data-annotation-id="TUFBTNLWQISYRIEK" points="282.3021,1929.313 496.0611,2180.88 1007.919,2182.334 1134.43,2063.094 1358.368,2068.911 1359.822,1658.843 885.7715,1653.026 798.5229,1596.314 596.397,1593.406 593.4887,1666.113 400.0877,1667.567 272.1231,1776.628 282.3021,1929.313" fill="none" stroke="#ef4444" stroke-width="10"/><polyline id="rooms-002" data-object-id="14" data-annotation-id="NUUVWBKMFEJTCPSV" points="852.3262,2724.729 849.4179,2316.115 1058.814,2313.207 1166.421,2192.513 1666.646,2183.788 1790.249,2234.683 1800.427,2329.203 1464.52,2585.132 1468.883,2745.087 858.1428,2736.363 856.6886,2716.005 852.3262,2724.729" fill="none" stroke="#ef4444" stroke-width="10"/><polyline id="rooms-003" data-object-id="16" data-annotation-id="XBCZVSRMFAYWIQUN" points="1708.817,2887.594 1711.725,2720.367 1772.799,2662.201 1861.501,2685.468 2024.366,2681.105 2095.619,2710.188 2571.123,2721.821 2632.198,2678.197 2829.961,2684.013 2908.485,2659.293 2960.834,2704.372 2973.921,2919.585 1704.454,2909.406 1713.179,2858.511 1710.271,2846.877 1707.362,2867.236 1705.908,2867.236 1708.817,2858.511 1708.817,2839.607 1708.817,2825.065" fill="none" stroke="#ef4444" stroke-width="10"/><polyline id="rooms-004" data-object-id="18" data-annotation-id="DUWQNSAVELHONEHP" points="1986.558,2608.398 1993.828,2384.46 2691.817,2381.552 2701.996,2585.132 2633.652,2577.861 2575.486,2665.11 2139.243,2682.559 2059.265,2620.031 1986.558,2608.398" fill="none" stroke="#ef4444" stroke-width="10"/><polyline id="rooms-005" data-object-id="20" data-annotation-id="PQVWPDMXHWZRNHBB" points="3203.676,2747.996 3836.228,2718.913 3847.861,2314.661 3641.373,2317.569 3645.735,2271.037 3541.037,2177.972 2994.279,2182.334 2901.214,2228.867 2888.127,2298.666 3216.763,2572.044 3203.676,2747.996" fill="none" stroke="#ef4444" stroke-width="10"/><polyline id="rooms-006" data-object-id="22" data-annotation-id="YGRRZBBWOEOUOZQQ" points="3888.577,2653.477 3884.215,2307.39 4212.851,2310.299 4214.305,2372.827 4177.951,2372.827 4173.589,2653.477 4076.161,2740.725 4048.533,2739.271 4049.987,2383.006 4017.996,2378.644 4015.087,2647.66 3888.577,2653.477" fill="none" stroke="#ef4444" stroke-width="10"/><polyline id="rooms-007" data-object-id="24" data-annotation-id="ILJSGATAAIMSQKUC" points="3693.722,2182.334 4214.305,2185.242 4428.064,1971.483 4438.243,1767.903 4300.1,1667.567 4121.24,1670.476 4112.515,1587.59 3923.476,1587.59 3839.136,1658.843 3351.998,1657.388 3354.906,2068.911 3583.207,2060.186 3693.722,2182.334" fill="none" stroke="#ef4444" stroke-width="10"/><polyline id="rooms-008" data-object-id="26" data-annotation-id="KQHIORRKFGQHFYKE" points="4413.522,1594.86 4329.182,1506.158 4329.182,1423.271 4413.522,1338.931 4528.4,1349.11 4611.286,1437.813 4602.561,1533.786 4524.038,1594.86 4413.522,1594.86" fill="none" stroke="#ef4444" stroke-width="10"/><polyline id="rooms-009" data-object-id="28" data-annotation-id="QQLWSQWRSKOQTLOX" points="4153.231,1500.341 4148.869,1107.722 4127.056,1084.456 4124.148,1013.203 4191.039,1069.915 4208.488,1064.098 4215.759,1125.172 4401.89,1120.81 4412.068,1260.407 4291.375,1357.835 4294.283,1507.612 4153.231,1500.341" fill="none" stroke="#ef4444" stroke-width="10"/><polyline id="rooms-010" data-object-id="30" data-annotation-id="NJUIKOZTUFDDDSKH" points="4135.781,944.8584 4209.942,1005.932 4564.753,1005.932 4576.387,739.8242 4451.33,608.9514 4227.392,606.043 4113.969,608.9514 4124.148,946.3125 4135.781,944.8584" fill="none" stroke="#ef4444" stroke-width="10"/><polyline id="rooms-011" data-object-id="32" data-annotation-id="BMAGPAGSXGRLARNG" points="3542.491,539.1523 3542.491,305.0354 3911.843,294.8564 3943.834,323.9392 3943.834,373.3801 3906.027,380.6509 3904.573,428.6375 3869.673,428.6375 3750.433,427.1833 3747.525,521.7026 3542.491,539.1523" fill="none" stroke="#ef4444" stroke-width="10"/><polyline id="rooms-012" data-object-id="34" data-annotation-id="RIEAHELUGVTAGINN" points="3487.233,981.2119 3484.325,723.8286 3523.587,664.2087 3885.669,672.9336 3917.66,710.7412 3913.297,979.7578 3487.233,981.2119" fill="none" stroke="#ef4444" stroke-width="10"/><polyline id="rooms-013" data-object-id="36" data-annotation-id="YYONUPAFDVBGKPXY" points="3942.38,972.4871 3951.105,646.759 3900.21,608.9514 4081.978,611.8596 4083.432,956.4915 3942.38,972.4871" fill="none" stroke="#ef4444" stroke-width="10"/><polyline id="rooms-014" data-object-id="38" data-annotation-id="AVXYIPRNPFKSRHGM" points="3200.767,1523.607 2969.558,1347.656 2965.196,1247.32 3091.707,1117.901 4052.895,1120.81 4115.423,1184.792 4111.061,1440.721 3908.935,1430.542 3837.682,1500.341 3200.767,1523.607" fill="none" stroke="#ef4444" stroke-width="10"/><polyline id="rooms-015" data-object-id="40" data-annotation-id="YHCETCPSFIQLAMWD" points="3125.045,996.5286 3132.316,720.2412 3447.38,721.4531 3451.016,984.4106 3118.986,984.4106 3123.833,971.0811 3131.104,968.6575" fill="none" stroke="#ef4444" stroke-width="10"/><polyline id="rooms-016" data-object-id="42" data-annotation-id="AYDGBWSAYDPZFFEB" points="2685.167,1219.497 2772.416,1211.015 2925.101,1286.145 2920.253,1173.449 3091.115,995.3167 3095.962,727.512 3017.196,716.606 3025.679,934.7273 2903.288,1076.506 2685.167,1089.836 2685.167,1219.497" fill="none" stroke="#ef4444" stroke-width="10"/><polyline id="rooms-017" data-object-id="44" data-annotation-id="VFKQDQABVATIZQBM" points="2714.25,946.8452 2721.521,634.2043 2894.806,637.8398 2978.419,717.8176 2984.478,845.0552 2877.841,937.1509 2714.25,946.8452" fill="none" stroke="#ef4444" stroke-width="10"/><polyline id="rooms-018" data-object-id="46" data-annotation-id="JGCQDMGWEJGCHZGT" points="2735.674,532.0459 2908.96,525.9871 3001.055,592.6353 3380.344,601.1177 3507.582,536.8931 3503.947,447.2209 3446.993,395.114 3039.833,381.7844 2939.254,456.9153 2742.945,449.6445 2735.674,532.0457" fill="none" stroke="#ef4444" stroke-width="10"/><polyline id="rooms-019" data-object-id="48" data-annotation-id="CXFMAAEDCAMYSWTG" points="681.0867,2648.022 816.3221,2650.931 816.3221,2316.478 473.1443,2316.478 489.1399,2387.731 526.9476,2381.914 526.9476,2675.651 641.8249,2746.904 644.7332,2386.277 682.5409,2386.277 681.0867,2648.022" fill="none" stroke="#ef4444" stroke-width="10"/><polyline id="rooms-020" data-object-id="50" data-annotation-id="KNCWIQYERUWXEXOB" points="112.8076,1592.363 296.9991,1583.88 366.0708,1494.208 362.4355,1420.289 263.069,1330.617 127.349,1340.312 3.746837,1471.184 112.8076,1592.363" fill="none" stroke="#ef4444" stroke-width="10"/><polyline id="rooms-021" data-object-id="52" data-annotation-id="VIIXXZRFBLTBHYSF" points="390.0157,1505.696 541.8282,1500.461 543.5732,1135.762 574.9827,1060.728 578.4726,1008.379 501.6939,1081.668 252.1629,1106.098 257.3979,1245.695 405.7205,1359.119 390.0157,1505.696" fill="none" stroke="#ef4444" stroke-width="10"/><polyline id="rooms-022" data-object-id="54" data-annotation-id="ARKNCAEWVYTMDMBP" points="97.63601,991.947 496.3136,1000.43 570.2325,930.1461 573.8679,606.5991 228.5089,609.0227 101.2714,738.6838 97.63601,991.947" fill="none" stroke="#ef4444" stroke-width="10"/><polyline id="rooms-023" data-object-id="56" data-annotation-id="PIYSDPOQQUNEXRSJ" points="777.4481,981.0411 783.5069,760.4961 789.5659,701.1184 824.7076,665.9768 1184.608,665.9768 1230.656,709.6011 1228.232,982.2529 777.4481,981.0411" fill="none" stroke="#ef4444" stroke-width="10"/><polyline id="rooms-024" data-object-id="58" data-annotation-id="ZQEOENXSERRGAUIA" points="789.5659,607.811 615.0687,605.3875 612.6451,983.4646 754.4241,978.6174 752.0005,697.4832 748.3651,636.8938 789.5659,607.811" fill="none" stroke="#ef4444" stroke-width="10"/><polyline id="rooms-025" data-object-id="60" data-annotation-id="QTRZFIJSDJOHGLXW" points="761.6948,389.6895 764.1183,312.1353 787.1423,293.9585 1156.737,297.5938 1167.643,516.927 967.6984,519.3506 970.1219,419.9841 931.3448,422.4077 904.6855,452.7024 848.9434,451.4905 823.4958,417.5605 805.3191,418.7725 790.7776,375.1479 766.5419,373.9363 761.6948,389.6892" fill="none" stroke="#ef4444" stroke-width="10"/><polyline id="rooms-026" data-object-id="62" data-annotation-id="HBKDPXJOCMPVLHOU" points="1993.257,930.1863 1827.646,929.1765 1733.733,843.3416 1729.694,714.0845 1818.558,631.2791 1991.238,641.3774 1995.277,936.2454 1981.139,932.2061 1983.159,930.1863" fill="none" stroke="#ef4444" stroke-width="10"/><polyline id="rooms-027" data-object-id="64" data-annotation-id="PQPGGAFJWLAQHFWD" points="1263.075,980.5964 1589.248,981.6064 1592.277,718.043 1262.066,719.0527 1263.075,980.5962" fill="none" stroke="#ef4444" stroke-width="10"/><polyline id="rooms-028" data-object-id="66" data-annotation-id="BRJEUQYFUAIJZRTY" points="1294.38,607.9724 1203.496,541.3242 1198.447,455.4893 1248.938,395.9099 1650.847,383.792 1768.996,450.4402 1973.99,453.4697 1969.951,540.3142 1803.33,527.1865 1725.574,599.8938 1365.067,601.9133 1296.4,601.9133 1286.301,606.9626" fill="none" stroke="#ef4444" stroke-width="10"/><polyline id="rooms-029" data-object-id="68" data-annotation-id="DVOVTJLPREIMNIPU" points="1988.396,541.5015 1985.972,455.4646 2059.891,451.8293 2051.409,312.4739 2648.819,310.0503 2645.184,437.2878 2648.819,445.7705 2721.526,455.4646 2717.891,523.3247 2671.843,517.2659 2673.055,965.6266 2033.232,957.144 2033.232,525.7483 1990.819,534.2307" fill="none" stroke="#ef4444" stroke-width="10"/><polyline id="rooms-030" data-object-id="70" data-annotation-id="JCCNDVYNJULTFDJG" points="2072.3,162.0671 2072.3,37.25317 2098.959,10.59399 2601.851,2.111572 2638.204,36.0415 2635.781,153.5847 2072.3,162.0669" fill="none" stroke="#ef4444" stroke-width="10"/><polyline id="rooms-031" data-object-id="72" data-annotation-id="LXDBAVKMVNPFFPOE" points="1625.202,994.1235 1625.202,720.6304 1697.573,720.6304 1689.999,906.6057 1689.158,952.0479 1802.762,1080.8 2024.923,1092.581 2027.448,1211.235 1951.711,1181.782 1944.979,1217.126 1856.62,1218.809 1791.823,1286.13 1789.298,1152.329 1625.202,988.2328" fill="none" stroke="#ef4444" stroke-width="10"/><polyline id="rooms-032" data-object-id="74" data-annotation-id="GZIAIGQHXXVRRXBE" points="592.4633,1436.967 793.1351,1423.88 889.1085,1508.22 1517.298,1512.582 1579.826,1436.967 1636.538,1436.967 1749.961,1326.452 1747.053,1242.112 1617.634,1119.964 646.2666,1117.055 585.1926,1181.038 592.4633,1436.967" fill="none" stroke="#ef4444" stroke-width="10"/><polyline id="rooms-033" data-object-id="76" data-annotation-id="ONGNWKJUJXPHZELU" points="2088.446,1429.807 1783.076,1679.92 1788.892,1925.67 1851.42,1983.836 2049.184,2158.333 2235.314,2178.691 2271.668,2088.534 2421.444,2073.993 2419.99,2158.333 2662.832,2168.512 2889.678,1941.666 2904.22,1684.282 2620.662,1421.082 2523.234,1416.72 2536.322,1316.384 2562.496,1288.755 2561.042,1104.079 2155.336,1101.171 2153.882,1312.022 2152.428,1418.174 2088.446,1429.807" fill="none" stroke="#ef4444" stroke-width="10"/><polyline id="rooms-034" data-object-id="78" data-annotation-id="SOLRPYNJJWWHIAJZ" points="1658.481,2868.885 1508.22,2868.885 1507.008,2676.211 1832.978,2386.594 1841.461,2139.389 1692.411,2049.717 1399.159,2054.564 1397.947,1654.675 1522.761,1649.828 1862.061,1346.881 2071.7,1344.458 2068.065,1065.747 2632.757,1060.294 2641.24,1342.64 2854.514,1343.852 3190.179,1652.857 3312.569,1651.646 3312.569,2097.583 3022.952,2063.653 2839.973,2171.502 2843.608,2385.988 3169.578,2673.181 3168.366,2870.702 3019.317,2871.914 3022.952,2659.852 2921.162,2553.214 2740.606,2559.273 2724.853,2259.962 1983.24,2251.479 1956.581,2253.903 1952.945,2564.12 1759.059,2558.062 1653.634,2659.852 1658.481,2868.885" fill="none" stroke="#ef4444" stroke-width="10"/><rect id="rooms-035" data-object-id="80" data-annotation-id="CBSLJTCSEDPBREOG" x="528.0842" y="2325.862" width="129.25710000000004" height="57.79999999999973" fill="none" stroke="#ef4444" stroke-width="4"/><rect id="rooms-036" data-object-id="83" data-annotation-id="MRUSSMCYETFPOWIW" x="3904.766" y="2303.585" width="129.25700000000006" height="71.59999999999991" fill="none" stroke="#ef4444" stroke-width="4"/><rect id="rooms-037" data-object-id="86" data-annotation-id="GGOGUKVIZQPAVFUJ" x="2298.582" y="1616.288" width="129.25700000000006" height="113" fill="none" stroke="#ef4444" stroke-width="4"/><rect id="rooms-038" data-object-id="89" data-annotation-id="XGZBNYQEDFVZEWBS" x="711.5736" y="1888.3" width="280.94039999999995" height="113" fill="none" stroke="#ef4444" stroke-width="4"/><rect id="rooms-039" data-object-id="92" data-annotation-id="EKIBZZLDHVJHMUPJ" x="120.0281" y="1453.323" width="146.5777" height="71.59999999999991" fill="none" stroke="#ef4444" stroke-width="4"/><rect id="rooms-040" data-object-id="95" data-annotation-id="CMGOQQQAHPBYODMD" x="1023.923" y="1291.52" width="289.66599999999994" height="113" fill="none" stroke="#ef4444" stroke-width="4"/><rect id="rooms-041" data-object-id="98" data-annotation-id="BHEPHJPLMXUHUKNQ" x="271.8407" y="811.1729" width="191.94689999999997" height="71.59989999999993" fill="none" stroke="#ef4444" stroke-width="4"/><rect id="rooms-042" data-object-id="101" data-annotation-id="ACZKQTTNFOPIBIAB" x="900.0304" y="809.4282" width="242.55160000000012" height="71.60000000000002" fill="none" stroke="#ef4444" stroke-width="4"/><rect id="rooms-043" data-object-id="104" data-annotation-id="VHDHDLFPRWFEYOIQ" x="1414.797" y="488.3535" width="176.24199999999996" height="71.59999999999997" fill="none" stroke="#ef4444" stroke-width="4"/><rect id="rooms-044" data-object-id="107" data-annotation-id="VDDBYFAUTCLZOENR" x="1793.456" y="751.8442" width="146.5780000000002" height="71.60000000000002" fill="none" stroke="#ef4444" stroke-width="4"/><rect id="rooms-045" data-object-id="110" data-annotation-id="ALHJNKYTECSIZRAZ" x="2231.444" y="562.6008" width="242.55099999999993" height="154.40009999999995" fill="none" stroke="#ef4444" stroke-width="4"/><rect id="rooms-046" data-object-id="113" data-annotation-id="FQPNISDLHHOCRSUX" x="2768.895" y="743.1194" width="146.57799999999997" height="71.59999999999991" fill="none" stroke="#ef4444" stroke-width="4"/><rect id="rooms-047" data-object-id="116" data-annotation-id="PIFVZXQZFHXHTNTG" x="3604.737" y="797.2131" width="230.42000000000007" height="71.59989999999993" fill="none" stroke="#ef4444" stroke-width="4"/><rect id="rooms-048" data-object-id="119" data-annotation-id="SGDEKITMQMHQCMUS" x="4279.245" y="753.072" width="184.27000000000044" height="71.6001" fill="none" stroke="#ef4444" stroke-width="4"/><rect id="rooms-049" data-object-id="122" data-annotation-id="DASKBVFBKWDJSTRM" x="4400.696" y="1454.551" width="146.57700000000023" height="71.60000000000014" fill="none" stroke="#ef4444" stroke-width="4"/><rect id="rooms-050" data-object-id="125" data-annotation-id="NBMRKXZKRQUKBUUK" x="3456.317" y="1223.079" width="234.5239999999999" height="154.4000000000001" fill="none" stroke="#ef4444" stroke-width="4"/><rect id="rooms-051" data-object-id="128" data-annotation-id="JNMDITXNWMAZSRGU" x="3724.344" y="1931.016" width="234.5239999999999" height="71.59999999999991" fill="none" stroke="#ef4444" stroke-width="4"/><rect id="rooms-052" data-object-id="131" data-annotation-id="ZRQHQLONZRMGRXSF" x="3370.464" y="2395.221" width="234.5239999999999" height="113" fill="none" stroke="#ef4444" stroke-width="4"/><rect id="rooms-053" data-object-id="134" data-annotation-id="BNPIYTOWWVFTSEBK" x="2239.722" y="2487.356" width="234.5239999999999" height="113" fill="none" stroke="#ef4444" stroke-width="4"/><rect id="rooms-054" data-object-id="137" data-annotation-id="YTOTQWQIRAWHIROJ" x="2248.098" y="2759.571" width="234.5239999999999" height="113" fill="none" stroke="#ef4444" stroke-width="4"/><rect id="rooms-055" data-object-id="140" data-annotation-id="ECWHSSNVKNDQIBAC" x="1070.05" y="2495.829" width="234.52300000000014" height="113" fill="none" stroke="#ef4444" stroke-width="4"/><rect id="rooms-056" data-object-id="143" data-annotation-id="AIFLMQSKDLKINOJB" x="1522.346" y="1772.201" width="234.5239999999999" height="154.4000000000001" fill="none" stroke="#ef4444" stroke-width="4"/><rect id="rooms-057" data-object-id="146" data-annotation-id="QHRDLHLARVCGKLHO" x="2969.696" y="1749.465" width="234.5239999999999" height="154.4000000000001" fill="none" stroke="#ef4444" stroke-width="4"/><rect id="rooms-058" data-object-id="152" data-annotation-id="IMXMEJJHMQMYUTQJ" x="1318.743" y="822.4663" width="90.73900000000003" height="71.59999999999991" fill="none" stroke="#ef4444" stroke-width="4"/><rect id="rooms-059" data-object-id="155" data-annotation-id="LROVHYMCVJLPMMLU" x="638.204" y="768.3721" width="90.73910000000001" height="71.59989999999993" fill="none" stroke="#ef4444" stroke-width="4"/><rect id="rooms-060" data-object-id="158" data-annotation-id="WNQJMXFDWMZMTLBW" x="341.5588" y="1206.36" width="90.73910000000001" height="71.60000000000014" fill="none" stroke="#ef4444" stroke-width="4"/><rect id="rooms-061" data-object-id="161" data-annotation-id="PEGEGWHRKSHAFGBE" x="1857.939" y="1129.581" width="90.73900000000003" height="71.60000000000014" fill="none" stroke="#ef4444" stroke-width="4"/><rect id="rooms-062" data-object-id="164" data-annotation-id="QXORQWQGVBAPPFSH" x="974.9837" y="344.344" width="90.73929999999996" height="71.60000000000002" fill="none" stroke="#ef4444" stroke-width="4"/><rect id="rooms-063" data-object-id="167" data-annotation-id="YLXLWJVEBODDZSYL" x="2271.498" y="40.71872" width="176.24199999999973" height="71.59998000000002" fill="none" stroke="#ef4444" stroke-width="4"/><rect id="rooms-064" data-object-id="170" data-annotation-id="PSVHEKCHMMIWNSMS" x="3070.695" y="463.0019" width="226.846" height="71.60000000000002" fill="none" stroke="#ef4444" stroke-width="4"/><rect id="rooms-065" data-object-id="173" data-annotation-id="IFTRQCPZWVGMUCIQ" x="3234.722" y="820.7212" width="90.73899999999958" height="71.60000000000002" fill="none" stroke="#ef4444" stroke-width="4"/><rect id="rooms-066" data-object-id="176" data-annotation-id="XAWELGRNHEFOAIPS" x="2773.561" y="1114.923" width="90.73900000000003" height="71.59999999999991" fill="none" stroke="#ef4444" stroke-width="4"/><rect id="rooms-067" data-object-id="179" data-annotation-id="VOFBLWYUNGJTZAJU" x="3612.823" y="354.8272" width="87.94700000000012" height="71.60000000000002" fill="none" stroke="#ef4444" stroke-width="4"/><rect id="rooms-068" data-object-id="182" data-annotation-id="VRJENKILDAZLAUYG" x="3965.575" y="821.1401" width="90.73900000000003" height="71.60000000000002" fill="none" stroke="#ef4444" stroke-width="4"/><rect id="rooms-069" data-object-id="185" data-annotation-id="AHIXXGHFWEYXCQLM" x="4244.771" y="1207.942" width="117.78499999999985" height="71.59999999999991" fill="none" stroke="#ef4444" stroke-width="4"/></g><text id="rooms-035-label" x="528.0842" y="688.3380000000002" fill="#fff" stroke="#111" paint-order="stroke" font-size="24">Stairs2</text><text id="rooms-036-label" x="3904.766" y="696.815" fill="#fff" stroke="#111" paint-order="stroke" font-size="24">Stairs1</text><text id="rooms-037-label" x="2298.582" y="1342.712" fill="#fff" stroke="#111" paint-order="stroke" font-size="24">Central Nexus</text><text id="rooms-038-label" x="711.5736" y="1070.7" fill="#fff" stroke="#111" paint-order="stroke" font-size="24">Agent Platform &amp; Models</text><text id="rooms-039-label" x="120.0281" y="1547.077" fill="#fff" stroke="#111" paint-order="stroke" font-size="24">Focus A</text><text id="rooms-040-label" x="1023.923" y="1667.48" fill="#fff" stroke="#111" paint-order="stroke" font-size="24">Plugins &amp; Automation</text><text id="rooms-041-label" x="271.8407" y="2189.2272000000003" fill="#fff" stroke="#111" paint-order="stroke" font-size="24">Sandbox 2</text><text id="rooms-042-label" x="900.0304" y="2190.9718000000003" fill="#fff" stroke="#111" paint-order="stroke" font-size="24">Conference 2</text><text id="rooms-043-label" x="1414.797" y="2512.0465" fill="#fff" stroke="#111" paint-order="stroke" font-size="24">Security A</text><text id="rooms-044-label" x="1793.456" y="2248.5558" fill="#fff" stroke="#111" paint-order="stroke" font-size="24">Focus B</text><text id="rooms-045-label" x="2231.444" y="2354.9991" fill="#fff" stroke="#111" paint-order="stroke" font-size="24">Data, Memory, Knowledge</text><text id="rooms-046-label" x="2768.895" y="2257.2806" fill="#fff" stroke="#111" paint-order="stroke" font-size="24">Focus C</text><text id="rooms-047-label" x="3604.737" y="2203.187" fill="#fff" stroke="#111" paint-order="stroke" font-size="24">Conference 1</text><text id="rooms-048-label" x="4279.245" y="2247.3279" fill="#fff" stroke="#111" paint-order="stroke" font-size="24">Sandbox 1</text><text id="rooms-049-label" x="4400.696" y="1545.849" fill="#fff" stroke="#111" paint-order="stroke" font-size="24">Focus D</text><text id="rooms-050-label" x="3456.317" y="1694.521" fill="#fff" stroke="#111" paint-order="stroke" font-size="24">Project &amp; Release MGMT</text><text id="rooms-051-label" x="3724.344" y="1069.384" fill="#fff" stroke="#111" paint-order="stroke" font-size="24">Software Eng</text><text id="rooms-052-label" x="3370.464" y="563.779" fill="#fff" stroke="#111" paint-order="stroke" font-size="24">Reliability &amp; Operations</text><text id="rooms-053-label" x="2239.722" y="471.6439999999998" fill="#fff" stroke="#111" paint-order="stroke" font-size="24">Executive Boardroom</text><text id="rooms-054-label" x="2248.098" y="199.4290000000001" fill="#fff" stroke="#111" paint-order="stroke" font-size="24">Executive Command</text><text id="rooms-055-label" x="1070.05" y="463.1709999999998" fill="#fff" stroke="#111" paint-order="stroke" font-size="24">Security &amp; Governance</text><text id="rooms-056-label" x="1522.346" y="1145.399" fill="#fff" stroke="#111" paint-order="stroke" font-size="24">Main Connecting Walkway</text><text id="rooms-057-label" x="2969.696" y="1168.135" fill="#fff" stroke="#111" paint-order="stroke" font-size="24">Main Connecting Walkway</text><text id="rooms-058-label" x="1318.743" y="2177.9337" fill="#fff" stroke="#111" paint-order="stroke" font-size="24">RM1</text><text id="rooms-059-label" x="638.204" y="2232.0280000000002" fill="#fff" stroke="#111" paint-order="stroke" font-size="24">RM2</text><text id="rooms-060-label" x="341.5588" y="1794.04" fill="#fff" stroke="#111" paint-order="stroke" font-size="24">RM3</text><text id="rooms-061-label" x="1857.939" y="1870.819" fill="#fff" stroke="#111" paint-order="stroke" font-size="24">RM4</text><text id="rooms-062-label" x="974.9837" y="2656.056" fill="#fff" stroke="#111" paint-order="stroke" font-size="24">RM5</text><text id="rooms-063-label" x="2271.498" y="2959.6813" fill="#fff" stroke="#111" paint-order="stroke" font-size="24">Entrance</text><text id="rooms-064-label" x="3070.695" y="2537.3981" fill="#fff" stroke="#111" paint-order="stroke" font-size="24">Security B</text><text id="rooms-065-label" x="3234.722" y="2179.6788" fill="#fff" stroke="#111" paint-order="stroke" font-size="24">RM6</text><text id="rooms-066-label" x="2773.561" y="1885.477" fill="#fff" stroke="#111" paint-order="stroke" font-size="24">RM7</text><text id="rooms-067-label" x="3612.823" y="2645.5728" fill="#fff" stroke="#111" paint-order="stroke" font-size="24">RM8</text><text id="rooms-068-label" x="3965.575" y="2179.2599" fill="#fff" stroke="#111" paint-order="stroke" font-size="24">RM9</text><text id="rooms-069-label" x="4244.771" y="1792.458" fill="#fff" stroke="#111" paint-order="stroke" font-size="24">RM10</text></svg>
